<svg width="24" height="24" viewBox="0 0 24 24" fill="none" xmlns="http://www.w3.org/2000/svg">
<g id="vuesax/bold/whatsapp">
<g id="vuesax/bold/whatsapp_2">
<g id="whatsapp">
<path id="Vector" d="M21.98 11.41C21.64 5.61001 16.37 1.14002 10.3 2.14002C6.12004 2.83002 2.77005 6.22 2.12005 10.4C1.74005 12.82 2.24007 15.11 3.33007 17L2.44006 20.31C2.24006 21.06 2.93004 21.74 3.67004 21.53L6.93005 20.63C8.41005 21.5 10.14 22 11.99 22C17.63 22 22.31 17.03 21.98 11.41ZM16.8801 15.72C16.7901 15.9 16.68 16.07 16.54 16.23C16.29 16.5 16.02 16.7 15.72 16.82C15.42 16.95 15.09 17.01 14.74 17.01C14.23 17.01 13.68 16.89 13.11 16.64C12.53 16.39 11.9601 16.06 11.3901 15.65C10.8101 15.23 10.2701 14.76 9.75005 14.25C9.23005 13.73 8.77003 13.18 8.35003 12.61C7.94003 12.04 7.61005 11.47 7.37005 10.9C7.13005 10.33 7.01006 9.78002 7.01006 9.26002C7.01006 8.92002 7.07006 8.59002 7.19006 8.29002C7.31006 7.98002 7.50007 7.70002 7.77007 7.45002C8.09007 7.13002 8.44005 6.98002 8.81005 6.98002C8.95005 6.98002 9.09002 7.01002 9.22002 7.07002C9.35002 7.13002 9.47005 7.22001 9.56005 7.35001L10.72 8.99C10.81 9.12 10.88 9.23 10.92 9.34C10.97 9.45 10.99 9.55 10.99 9.65C10.99 9.77 10.9501 9.89002 10.8801 10.01C10.8101 10.13 10.72 10.25 10.6 10.37L10.22 10.77C10.16 10.83 10.1401 10.89 10.1401 10.97C10.1401 11.01 10.15 11.05 10.16 11.09C10.18 11.13 10.1901 11.16 10.2001 11.19C10.2901 11.36 10.45 11.57 10.67 11.83C10.9 12.09 11.1401 12.36 11.4001 12.62C11.6701 12.89 11.9301 13.13 12.2001 13.36C12.4601 13.58 12.68 13.73 12.85 13.82C12.88 13.83 12.9101 13.85 12.9401 13.86C12.9801 13.88 13.0201 13.88 13.0701 13.88C13.1601 13.88 13.2201 13.85 13.2801 13.79L13.66 13.41C13.79 13.28 13.9101 13.19 14.0201 13.13C14.1401 13.06 14.2501 13.02 14.3801 13.02C14.4801 13.02 14.5801 13.04 14.6901 13.09C14.8001 13.14 14.92 13.2 15.04 13.29L16.7001 14.47C16.8301 14.56 16.92 14.67 16.98 14.79C17.03 14.92 17.0601 15.04 17.0601 15.18C17.0001 15.35 16.9601 15.54 16.8801 15.72Z" fill="white"/>
</g>
</g>
</g>
</svg>
